<?xml version="1.0" encoding="utf-8"?>
<!-- Generator: Adobe Illustrator 21.0.0, SVG Export Plug-In . SVG Version: 6.00 Build 0)  -->
<svg version="1.1" id="Capa_1" xmlns="http://www.w3.org/2000/svg" xmlns:xlink="http://www.w3.org/1999/xlink" x="0px" y="0px"
	 viewBox="0 0 29 29" style="enable-background:new 0 0 29 29;" xml:space="preserve">
<style type="text/css">
	.st0{fill:#FFFFFF;}
</style>
<g>
	<g>
		<polygon class="st0" points="7.6,15.6 8.8,15.6 8.8,21.8 9.9,21.8 9.9,15.6 11,15.6 11,14.6 7.6,14.6 		"/>
		<path class="st0" d="M16.8,16.3c-0.4,0-0.7,0.2-1,0.6v-2.4h-1v7.2h1v-0.5c0.3,0.4,0.7,0.6,1,0.6c0.4,0,0.7-0.2,0.8-0.6
			c0.1-0.2,0.1-0.6,0.1-1.1V18c0-0.5,0-0.9-0.1-1.1C17.5,16.5,17.2,16.3,16.8,16.3z M16.7,20.2c0,0.5-0.1,0.7-0.4,0.7
			c-0.2,0-0.3-0.1-0.5-0.2v-3.3c0.2-0.2,0.3-0.2,0.5-0.2c0.3,0,0.4,0.2,0.4,0.7V20.2z"/>
		<path class="st0" d="M13,20.5c-0.2,0.3-0.4,0.5-0.6,0.5c-0.1,0-0.2-0.1-0.2-0.2c0,0,0-0.2,0-0.4v-4h-1v4.3c0,0.4,0,0.6,0.1,0.8
			c0.1,0.3,0.3,0.4,0.6,0.4c0.4,0,0.7-0.2,1.1-0.7v0.6h1v-5.4h-1V20.5z"/>
		<path class="st0" d="M13.8,11.4c0.3,0,0.5-0.3,0.5-0.8V8.4c0-0.5-0.2-0.8-0.5-0.8c-0.3,0-0.5,0.3-0.5,0.8v2.3
			C13.4,11.2,13.5,11.4,13.8,11.4z"/>
		<path class="st0" d="M14.5,0C6.5,0,0,6.5,0,14.5S6.5,29,14.5,29S29,22.5,29,14.5S22.5,0,14.5,0z M16.1,6.8h1v4c0,0.2,0,0.4,0,0.4
			c0,0.2,0.1,0.2,0.2,0.2c0.2,0,0.4-0.2,0.6-0.5V6.8h1v5.5h-1v-0.6c-0.4,0.5-0.8,0.7-1.1,0.7c-0.3,0-0.5-0.1-0.6-0.4
			c-0.1-0.2-0.1-0.4-0.1-0.8V6.8L16.1,6.8z M12.4,8.6c0-0.6,0.1-1,0.3-1.3c0.3-0.4,0.7-0.6,1.2-0.6c0.5,0,0.9,0.2,1.2,0.6
			c0.2,0.3,0.3,0.7,0.3,1.3v1.9c0,0.6-0.1,1-0.3,1.3c-0.3,0.4-0.7,0.6-1.2,0.6c-0.5,0-0.9-0.2-1.2-0.6c-0.2-0.3-0.3-0.7-0.3-1.3V8.6
			z M9.7,4.9l0.8,2.9l0.7-2.9h1.1l-1.3,4.4v3H10v-3C9.9,8.7,9.6,8,9.3,7c-0.2-0.7-0.5-1.4-0.7-2C8.6,4.9,9.7,4.9,9.7,4.9z
			 M22.3,22.3c-0.2,0.9-0.9,1.5-1.7,1.6c-2,0.2-4,0.2-6.1,0.2c-2,0-4.1,0-6.1-0.2c-0.8-0.1-1.6-0.7-1.7-1.6
			c-0.3-1.2-0.3-2.6-0.3-3.8c0-1.3,0-2.6,0.3-3.8c0.2-0.9,0.9-1.5,1.7-1.6c2-0.2,4-0.2,6.1-0.2c2,0,4.1,0,6.1,0.2
			c0.8,0.1,1.6,0.7,1.7,1.6c0.3,1.2,0.3,2.6,0.3,3.8C22.6,19.7,22.6,21,22.3,22.3z"/>
		<path class="st0" d="M19.9,16.3c-0.5,0-0.9,0.2-1.2,0.6c-0.2,0.3-0.3,0.7-0.3,1.3V20c0,0.6,0.1,1,0.3,1.3c0.3,0.4,0.7,0.6,1.2,0.6
			c0.5,0,0.9-0.2,1.2-0.6c0.1-0.2,0.2-0.4,0.2-0.6c0-0.1,0-0.3,0-0.6v-0.1h-1c0,0.4,0,0.6,0,0.7c-0.1,0.3-0.2,0.4-0.4,0.4
			c-0.3,0-0.5-0.2-0.5-0.7v-1h2v-1.1c0-0.6-0.1-1-0.3-1.3C20.8,16.5,20.4,16.3,19.9,16.3z M20.4,18.5h-1V18c0-0.5,0.2-0.7,0.5-0.7
			c0.3,0,0.5,0.2,0.5,0.7V18.5z"/>
	</g>
</g>
</svg>
