<?xml version="1.0" encoding="utf-8"?>
<!-- Generator: Adobe Illustrator 21.0.0, SVG Export Plug-In . SVG Version: 6.00 Build 0)  -->
<svg version="1.1" id="Capa_1" xmlns="http://www.w3.org/2000/svg" xmlns:xlink="http://www.w3.org/1999/xlink" x="0px" y="0px"
	 viewBox="0 0 29 29" style="enable-background:new 0 0 29 29;" xml:space="preserve">
<style type="text/css">
	.st0{fill:#FFFFFF;}
</style>
<g>
	<path class="st0" d="M14.5,0C6.5,0,0,6.5,0,14.5S6.5,29,14.5,29S29,22.5,29,14.5S22.5,0,14.5,0z M21.9,16.1c0.7,0.7,1.4,1.3,2,2
		c0.3,0.3,0.5,0.7,0.7,1c0.3,0.5,0,1.1-0.5,1.2l-3,0c-0.8,0.1-1.4-0.2-1.9-0.8c-0.4-0.4-0.8-0.9-1.2-1.3c-0.2-0.2-0.3-0.3-0.5-0.5
		c-0.4-0.3-0.8-0.2-1,0.2c-0.2,0.4-0.3,0.9-0.3,1.4c0,0.7-0.2,0.9-0.9,0.9c-1.5,0.1-2.9-0.2-4.3-0.9c-1.2-0.7-2.1-1.6-2.9-2.7
		c-1.5-2.1-2.7-4.4-3.8-6.7C4.2,9.4,4.3,9.1,4.9,9.1c1,0,1.9,0,2.9,0c0.4,0,0.7,0.2,0.8,0.6c0.5,1.3,1.2,2.5,2,3.7
		c0.2,0.3,0.4,0.6,0.7,0.8c0.3,0.2,0.6,0.2,0.8-0.2c0.1-0.2,0.1-0.5,0.2-0.8c0.1-0.9,0.1-1.8,0-2.7c-0.1-0.6-0.4-0.9-1-1
		c-0.3-0.1-0.2-0.2-0.1-0.3c0.2-0.3,0.5-0.5,0.9-0.5l3.4,0c0.5,0.1,0.6,0.3,0.7,0.9l0,3.7c0,0.2,0.1,0.8,0.5,1
		c0.3,0.1,0.5-0.1,0.7-0.3c0.8-0.9,1.4-1.9,1.9-2.9c0.2-0.5,0.4-0.9,0.6-1.4c0.1-0.4,0.4-0.5,0.8-0.5l3.2,0c0.1,0,0.2,0,0.3,0
		c0.5,0.1,0.7,0.3,0.5,0.9c-0.3,0.8-0.8,1.5-1.3,2.2c-0.5,0.7-1.1,1.5-1.7,2.2C21.2,15.1,21.2,15.5,21.9,16.1z"/>
</g>
</svg>
