<?xml version="1.0" encoding="utf-8"?>
<!-- Generator: Adobe Illustrator 21.0.0, SVG Export Plug-In . SVG Version: 6.00 Build 0)  -->
<svg version="1.1" id="Capa_1" xmlns="http://www.w3.org/2000/svg" xmlns:xlink="http://www.w3.org/1999/xlink" x="0px" y="0px"
	 viewBox="0 0 29 29" style="enable-background:new 0 0 29 29;" xml:space="preserve">
<style type="text/css">
	.st0{fill:#FFFFFF;}
</style>
<g>
	<g>
		<path class="st0" d="M14.5,0C6.5,0,0,6.5,0,14.5C0,22.5,6.5,29,14.5,29c8,0,14.5-6.5,14.5-14.5C29,6.5,22.5,0,14.5,0z M18.1,15
			h-2.4c0,3.8,0,8.4,0,8.4h-3.5c0,0,0-4.6,0-8.4h-1.7v-3h1.7v-1.9c0-1.4,0.7-3.5,3.5-3.5l2.6,0v2.9c0,0-1.6,0-1.9,0
			s-0.7,0.2-0.7,0.8V12h2.7L18.1,15z"/>
	</g>
</g>
</svg>
