<?xml version="1.0" encoding="utf-8"?>
<!-- Generator: Adobe Illustrator 21.0.0, SVG Export Plug-In . SVG Version: 6.00 Build 0)  -->
<svg version="1.1" id="Layer_1" xmlns="http://www.w3.org/2000/svg" xmlns:xlink="http://www.w3.org/1999/xlink" x="0px" y="0px"
	 viewBox="0 0 29 29" style="enable-background:new 0 0 29 29;" xml:space="preserve">
<style type="text/css">
	.st0{fill:#FFFFFF;}
</style>
<g>
	<path class="st0" d="M18.8,7.7h-8.6c-1.4,0-2.5,1.1-2.5,2.5v8.6c0,1.4,1.1,2.5,2.5,2.5h8.6c1.4,0,2.5-1.1,2.5-2.5v-8.6
		C21.3,8.8,20.2,7.7,18.8,7.7z M14.5,19C12,19,10,17,10,14.5c0-2.5,2-4.5,4.5-4.5c2.5,0,4.5,2,4.5,4.5S17,19,14.5,19z M19.1,11
		c-0.6,0-1.1-0.5-1.1-1.1c0-0.6,0.5-1.1,1.1-1.1c0.6,0,1.1,0.5,1.1,1.1S19.7,11,19.1,11z"/>
	<path class="st0" d="M14.5,11.9c-1.4,0-2.6,1.2-2.6,2.6c0,1.4,1.2,2.6,2.6,2.6c1.4,0,2.6-1.2,2.6-2.6
		C17.1,13.1,15.9,11.9,14.5,11.9z"/>
	<path class="st0" d="M14.5,0C6.5,0,0,6.5,0,14.5S6.5,29,14.5,29S29,22.5,29,14.5S22.5,0,14.5,0z M23.2,18.9c0,2.4-2,4.4-4.4,4.4
		h-8.6c-2.4,0-4.4-2-4.4-4.4v-8.6c0-2.4,2-4.4,4.4-4.4h8.6c2.4,0,4.4,2,4.4,4.4V18.9z"/>
</g>
</svg>
